<svg width="1634" height="123" viewBox="0 0 1634 123" fill="none" xmlns="http://www.w3.org/2000/svg">
<path d="M-3.9 210V3.59999H174.6V53.1H62.4V81.6H158.4V129H62.4V160.5H176.7V210H-3.9ZM310.104 213.6C286.704 213.6 267.004 209.6 251.004 201.6C235.204 193.6 223.204 181.7 215.004 165.9C207.004 149.9 203.004 130.2 203.004 106.8C203.004 71.6 212.004 45 230.004 27C248.204 8.99999 274.904 -1.43051e-05 310.104 -1.43051e-05C330.104 -1.43051e-05 347.504 3.39999 362.304 10.2C377.304 16.8 388.904 26.7 397.104 39.9C405.304 53.1 409.404 69.3 409.404 88.5H346.104C346.104 80.5 344.704 73.6 341.904 67.8C339.104 62 335.004 57.5 329.604 54.3C324.404 51.1 317.804 49.5 309.804 49.5C300.404 49.5 292.804 51.5 287.004 55.5C281.404 59.5 277.304 65.1 274.704 72.3C272.104 79.5 270.804 87.8 270.804 97.2V116.4C270.804 125.8 272.104 134.1 274.704 141.3C277.504 148.5 281.704 154.1 287.304 158.1C292.904 162.1 300.204 164.1 309.204 164.1C318.004 164.1 325.204 162.6 330.804 159.6C336.604 156.6 340.904 152.3 343.704 146.7C346.704 140.9 348.204 134.1 348.204 126.3H409.404C409.404 145.1 405.504 161 397.704 174C389.904 187 378.604 196.9 363.804 203.7C349.004 210.3 331.104 213.6 310.104 213.6ZM445.2 210V3.59999H511.5V78.9H584.4V3.59999H650.7V210H584.4V131.7H511.5V210H445.2ZM695.102 210V3.59999H761.402V210H695.102ZM805.845 210V3.59999H898.245L917.145 76.2C917.945 78.8 919.045 83.1 920.445 89.1C922.045 95.1 923.645 101.6 925.245 108.6C927.045 115.6 928.645 122.1 930.045 128.1H932.445C933.445 123.7 934.645 118.5 936.045 112.5C937.645 106.3 939.245 100 940.845 93.6C942.445 87.2 943.845 81.4 945.045 76.2L963.945 3.59999H1053.04V210H989.745V135.6C989.745 127.6 989.745 119.4 989.745 111C989.945 102.4 990.045 94.3 990.045 86.7C990.245 79.1 990.345 72.8 990.345 67.8H987.945C987.345 71.8 986.445 76.5 985.245 81.9C984.245 87.3 983.145 92.7 981.945 98.1C980.745 103.3 979.545 107.9 978.345 111.9L951.645 210H902.145L875.145 111.9C874.145 107.9 872.945 103.3 871.545 98.1C870.345 92.7 869.245 87.3 868.245 81.9C867.245 76.5 866.345 71.9 865.545 68.1H863.145C863.345 73.1 863.545 79.4 863.745 87C863.945 94.6 864.045 102.6 864.045 111C864.245 119.4 864.345 127.6 864.345 135.6V210H805.845ZM1097.35 210V3.59999H1163.65V210H1097.35ZM1208.09 210V3.59999H1264.49L1328.69 77.7C1330.49 79.7 1332.89 82.6 1335.89 86.4C1338.89 90.2 1341.89 94.1 1344.89 98.1C1348.09 101.9 1350.49 105 1352.09 107.4L1353.59 106.8C1353.39 101.2 1353.29 95.7 1353.29 90.3C1353.29 84.7 1353.29 80.5 1353.29 77.7V3.59999H1413.59V210H1357.49L1285.19 127.5C1281.79 123.5 1278.89 119.9 1276.49 116.7C1274.09 113.3 1271.79 110.1 1269.59 107.1L1268.09 107.7C1268.29 111.5 1268.39 115.3 1268.39 119.1C1268.39 122.9 1268.39 125.7 1268.39 127.5V210H1208.09ZM1458.89 210V3.59999H1637.39V53.1H1525.19V81.6H1621.19V129H1525.19V160.5H1639.49V210H1458.89Z" fill="black"/>
</svg>
