<svg width="1920" height="206" viewBox="0 0 1920 206" fill="none" xmlns="http://www.w3.org/2000/svg">
<g clip-path="url(#clip0_374_51)">
<path d="M-5 245.77V3.23034H204.522V61.3975H72.8225V94.8876H185.507V150.587H72.8225V187.603H206.987V245.77H-5ZM363.576 250C336.109 250 312.985 245.3 294.205 235.899C275.659 226.498 261.573 212.515 251.948 193.948C242.558 175.147 237.862 151.997 237.862 124.5C237.862 83.1367 248.427 51.8792 269.555 30.7275C290.918 9.57585 322.258 -1 363.576 -1C387.052 -1 407.476 2.99532 424.848 10.986C442.455 18.7416 456.071 30.375 465.696 45.8863C475.321 61.3975 480.133 80.434 480.133 102.996H405.832C405.832 93.595 404.189 85.4869 400.902 78.6714C397.616 71.8558 392.803 66.5679 386.465 62.8076C380.361 59.0473 372.614 57.1671 363.224 57.1671C352.19 57.1671 343.269 59.5173 336.461 64.2177C329.888 68.9181 325.075 75.4986 322.023 83.9593C318.972 92.42 317.446 102.173 317.446 113.219V135.781C317.446 146.827 318.972 156.58 322.023 165.041C325.31 173.501 330.24 180.082 336.813 184.782C343.386 189.483 351.955 191.833 362.519 191.833C372.849 191.833 381.3 190.07 387.873 186.545C394.681 183.02 399.729 177.967 403.015 171.386C406.537 164.571 408.297 156.58 408.297 147.414H480.133C480.133 169.506 475.556 188.19 466.4 203.466C457.244 218.743 443.981 230.376 426.608 238.367C409.236 246.122 388.225 250 363.576 250ZM522.151 245.77V3.23034H599.973V91.7149H685.543V3.23034H763.365V245.77H685.543V153.76H599.973V245.77H522.151ZM815.484 245.77V3.23034H893.306V245.77H815.484ZM945.473 245.77V3.23034H1053.93L1076.12 88.5421C1077.06 91.5974 1078.35 96.6503 1079.99 103.701C1081.87 110.751 1083.75 118.39 1085.62 126.615C1087.74 134.841 1089.61 142.479 1091.26 149.53H1094.08C1095.25 144.359 1096.66 138.249 1098.3 131.198C1100.18 123.912 1102.06 116.509 1103.94 108.989C1105.81 101.468 1107.46 94.6526 1108.87 88.5421L1131.05 3.23034H1235.63V245.77H1161.33V158.343C1161.33 148.942 1161.33 139.306 1161.33 129.435C1161.57 119.33 1161.69 109.811 1161.69 100.881C1161.92 91.9499 1162.04 84.5468 1162.04 78.6714H1159.22C1158.52 83.3717 1157.46 88.8947 1156.05 95.2402C1154.88 101.586 1153.59 107.931 1152.18 114.277C1150.77 120.387 1149.36 125.793 1147.95 130.493L1116.61 245.77H1058.51L1026.82 130.493C1025.64 125.793 1024.23 120.387 1022.59 114.277C1021.18 107.931 1019.89 101.586 1018.72 95.2402C1017.54 88.8947 1016.49 83.4892 1015.55 79.0239H1012.73C1012.97 84.8994 1013.2 92.3024 1013.44 101.233C1013.67 110.164 1013.79 119.565 1013.79 129.435C1014.02 139.306 1014.14 148.942 1014.14 158.343V245.77H945.473ZM1287.64 245.77V3.23034H1365.46V245.77H1287.64ZM1417.63 245.77V3.23034H1483.83L1559.19 90.3048C1561.3 92.655 1564.12 96.0627 1567.64 100.528C1571.16 104.993 1574.68 109.576 1578.2 114.277C1581.96 118.742 1584.77 122.385 1586.65 125.205L1588.41 124.5C1588.18 117.919 1588.06 111.456 1588.06 105.111C1588.06 98.5304 1588.06 93.595 1588.06 90.3048V3.23034H1658.84V245.77H1592.99L1508.13 148.824C1504.13 144.124 1500.73 139.894 1497.91 136.133C1495.1 132.138 1492.4 128.378 1489.81 124.853L1488.05 125.558C1488.29 130.023 1488.41 134.488 1488.41 138.954C1488.41 143.419 1488.41 146.709 1488.41 148.824V245.77H1417.63ZM1712.01 245.77V3.23034H1921.54V61.3975H1789.84V94.8876H1902.52V150.587H1789.84V187.603H1924V245.77H1712.01Z" fill="black"/>
</g>
<defs>
<clipPath id="clip0_374_51">
<rect width="1920" height="206" fill="white"/>
</clipPath>
</defs>
</svg>
